<?xml version="1.0" encoding="UTF-8"?>
<svg id="Layer_1" xmlns="http://www.w3.org/2000/svg" xmlns:xlink="http://www.w3.org/1999/xlink" version="1.1" viewBox="0 0 1024 1024">
  <!-- Generator: Adobe Illustrator 29.2.1, SVG Export Plug-In . SVG Version: 2.1.0 Build 116)  -->
  <defs>
    <style>
      .st0 {
        fill: url(#linear-gradient);
      }

      .st1 {
        fill: url(#linear-gradient1);
        fill-rule: evenodd;
        filter: url(#drop-shadow-1);
      }
    </style>
    <linearGradient id="linear-gradient" x1="512" y1="1026" x2="512" y2="2" gradientTransform="translate(0 1026) scale(1 -1)" gradientUnits="userSpaceOnUse">
      <stop offset="0" stop-color="#1c265b"/>
      <stop offset="1" stop-color="#060816"/>
    </linearGradient>
    <linearGradient id="linear-gradient1" x1="147.9" y1="542" x2="874.8" y2="481.1" gradientTransform="translate(0 1026) scale(1 -1)" gradientUnits="userSpaceOnUse">
      <stop offset="0" stop-color="#2091f6"/>
      <stop offset="1" stop-color="#21b568"/>
    </linearGradient>
    <filter id="drop-shadow-1" x="45" y="114" width="933" height="834" filterUnits="userSpaceOnUse">
      <feOffset dx="0" dy="20"/>
      <feGaussianBlur result="blur" stdDeviation="40"/>
      <feFlood flood-color="#21a4ac" flood-opacity=".3"/>
      <feComposite in2="blur" operator="in"/>
      <feComposite in="SourceGraphic"/>
    </filter>
  </defs>
  <rect class="st0" width="1024" height="1024"/>
  <path class="st1" d="M675.8,727.7c98.4,1.7,179.8-76.9,181.5-175.3.9-49-19.2-97-54.2-131.1.9-94.8-75.1-173-170.1-174.7-27.6-.5-54.6,5.5-79.1,17.6-31.4-30.8-73.4-48.4-117.9-49.2-92.9-1.6-170.3,70.6-175.8,162.6-56.9,30.5-93.5,89.6-94.6,154.9-1.7,98.9,77.3,180.7,176.1,182.4,4.7,0,9.4,0,14-.3,32.1,56.1,91.8,92.1,157.2,93.2,62.5,1.1,120.7-29.3,155.6-80.3,2.4.1,4.8.2,7.2.3ZM513.8,760.7c-52.9-.9-101.1-32.7-123-81l-7.4-16.4-17.7,2.8c-7.6,1.2-15.4,1.7-23.1,1.6-72.9-1.3-131.2-61.6-129.9-134.5.9-52,32.3-98.7,80.1-119.2l14.7-6.3-.5-16c0-1.9,0-3.9,0-5.8,1.2-69.5,58.8-125,128.2-123.8,37.4.7,72.1,17.6,95.7,46.7l13.3,16.4,17.7-11.4c21-13.5,45.3-20.4,70.3-20,69.5,1.2,125,58.8,123.8,128.2,0,2.5-.2,5-.4,7.5l-.9,12,9.2,7.8c29.7,25.3,47,63.6,46.3,102.4-1.3,72.4-61.2,130.3-133.6,129-5.6,0-11.3-.6-16.8-1.4l-15.9-2.3-7.9,14c-24.9,44-71.6,70.6-122.1,69.8ZM606.5,573.9l.5-.2c6.2-2.5,8.4-4.8,8.5-11.2v-8c.3-7-3.7-11.7-10.3-11.8h-.4s-1.3.3-1.3.3c-14.9,5-29.5,7.3-43.4,7.1-13.9-.2-27.5-3.1-40.5-8.5l-.4-.2-1.5-.2c-6.6-.1-10.8,4.3-10.9,11.4v8c-.2,6,2,8.8,7.2,11.1h0c.3.1.4.2.6.3.1,0,.3.1.6.3,14.2,6.4,29.1,9.8,44.3,10,15.1.3,30.9-2.6,47-8.4ZM403.6,504.5c.1-6.5,3.5-10,8-10.8l43.5-10.6-43.2-12.1c-4.5-1.3-7.7-4.9-7.6-11.1l.2-13.6c.1-6,3.7-8.5,7.8-8.4,1.3,0,2.7.3,4.1.9l76.8,26.3c5.8,2.1,9,6.8,8.9,13.3l-.2,11.2c-.1,6.5-3.4,11.1-9.3,13l-77.8,23.7c-1.3.4-2.5.5-3.6.5-4.8,0-7.9-3.6-7.8-8.7l.2-13.4Z"/>
</svg>